<?xml version="1.0" encoding="UTF-8"?>
<svg width="8px" height="12px" viewBox="0 0 8 12" version="1.1" xmlns="http://www.w3.org/2000/svg" xmlns:xlink="http://www.w3.org/1999/xlink">
    <title>smartphone</title>
    <defs>
        <filter id="filter-1">
            <feColorMatrix in="SourceGraphic" type="matrix" values="0 0 0 0 0.223529 0 0 0 0 0.188235 0 0 0 0 0.423529 0 0 0 1.000000 0"></feColorMatrix>
        </filter>
        <filter id="filter-2">
            <feColorMatrix in="SourceGraphic" type="matrix" values="0 0 0 0 0.000000 0 0 0 0 0.572549 0 0 0 0 0.741176 0 0 0 1.000000 0"></feColorMatrix>
        </filter>
    </defs>
    <g id="Page-1" stroke="none" stroke-width="1" fill="none" fill-rule="evenodd">
        <g id="DASHBOARD" transform="translate(-350.000000, -334.000000)">
            <g id="Group-9" transform="translate(-2119.000000, 186.000000)">
                <g id="Group-3" transform="translate(2466.000000, 25.000000)">
                    <g id="Group" transform="translate(0.000000, 99.000000)" filter="url(#filter-1)">
                        <g transform="translate(3.000000, 24.000000)" id="smartphone" filter="url(#filter-2)">
                            <g fill="#000000" fill-rule="nonzero" id="Shape">
                                <path d="M6.97219048,0 L1.02780952,0 C0.532571429,0 0.127238095,0.364457143 0.127238095,0.810514286 L0.127238095,11.1891429 C0.127238095,11.6352 0.532571429,12 1.02780952,12 L6.97219048,12 C7.46742857,12 7.8727619,11.6358857 7.8727619,11.1894857 L7.8727619,0.810514286 C7.8727619,0.364457143 7.46742857,0 6.97219048,0 Z M3.04914286,0.584228571 L4.95085714,0.584228571 C5.01104762,0.584228571 5.05980952,0.628114286 5.05980952,0.682628571 C5.05980952,0.7368 5.01104762,0.780685714 4.95085714,0.780685714 L3.04914286,0.780685714 C2.98895238,0.780685714 2.94019048,0.7368 2.94019048,0.682628571 C2.94019048,0.628114286 2.98895238,0.584228571 3.04914286,0.584228571 Z M4,11.5947429 C3.7512381,11.5947429 3.54971429,11.4133714 3.54971429,11.1891429 C3.54971429,10.9649143 3.7512381,10.7838857 4,10.7838857 C4.2487619,10.7838857 4.45028571,10.9649143 4.45028571,11.1891429 C4.45028571,11.4133714 4.2487619,11.5947429 4,11.5947429 Z M7.24609524,10.5 L0.753904762,10.5 L0.753904762,1.28537143 L7.24609524,1.28537143 L7.24609524,10.5 Z"></path>
                            </g>
                        </g>
                    </g>
                </g>
            </g>
        </g>
    </g>
</svg>