<?xml version="1.0" encoding="UTF-8"?>
<svg width="12px" height="15px" viewBox="0 0 12 15" version="1.1" xmlns="http://www.w3.org/2000/svg" xmlns:xlink="http://www.w3.org/1999/xlink">
    <title>place</title>
    <defs>
        <filter id="filter-1">
            <feColorMatrix in="SourceGraphic" type="matrix" values="0 0 0 0 0.223529 0 0 0 0 0.188235 0 0 0 0 0.423529 0 0 0 1.000000 0"></feColorMatrix>
        </filter>
        <filter id="filter-2">
            <feColorMatrix in="SourceGraphic" type="matrix" values="0 0 0 0 0.000000 0 0 0 0 0.572549 0 0 0 0 0.741176 0 0 0 1.000000 0"></feColorMatrix>
        </filter>
    </defs>
    <g id="Page-1" stroke="none" stroke-width="1" fill="none" fill-rule="evenodd">
        <g id="DASHBOARD" transform="translate(-348.000000, -355.000000)">
            <g id="Group-9" transform="translate(-2119.000000, 186.000000)">
                <g id="Group-3" transform="translate(2466.000000, 25.000000)">
                    <g id="Group" transform="translate(0.000000, 99.000000)" filter="url(#filter-1)">
                        <g transform="translate(1.000000, 45.000000)" id="place" filter="url(#filter-2)">
                            <g fill="#000000" fill-rule="nonzero" id="Shape">
                                <path d="M10.9024327,2.60803711 C9.77492308,0.950712891 7.98799038,0 6.00017308,0 C4.01235577,0 2.22542308,0.950712891 1.09791346,2.60803711 C-0.0240576923,4.25698242 -0.283125,6.34458984 0.403528846,8.18897461 C0.587192308,8.69264648 0.879144231,9.18199219 1.26920192,9.64054687 L5.60702885,14.8153711 C5.70513462,14.9325 5.848875,15 6.00017308,15 C6.15147115,15 6.29521154,14.9325293 6.39331731,14.8153711 L10.7299327,9.64195312 C11.1217212,9.18076172 11.4132981,8.69194336 11.5954327,8.19231445 C12.2834712,6.34458984 12.0244038,4.25698242 10.9024327,2.60803711 Z M10.6283942,7.82499023 C10.4879423,8.21047852 10.2586442,8.59160156 9.94725,8.95819336 C9.94638462,8.95907227 9.94551923,8.95995117 9.94482692,8.96100586 L6.00017308,13.6666113 L2.05309615,8.95804687 C1.741875,8.59177734 1.51257692,8.21068359 1.37074038,7.82150391 C0.802875,6.29616211 1.01838462,4.57010742 1.94740385,3.20455078 C2.87933654,1.83462891 4.35660577,1.04894531 6.00017308,1.04894531 C7.64371154,1.04894531 9.12080769,1.83459961 10.0527692,3.20455078 C10.9819615,4.57010742 11.1976442,6.29616211 10.6283942,7.82499023 Z"></path>
                                <path d="M6.00017308,3.11188477 C4.40567308,3.11188477 3.10828846,4.42936523 3.10828846,6.04895508 C3.10828846,7.66854492 4.4055,8.98602539 6.00017308,8.98602539 C7.59484615,8.98602539 8.89205769,7.66854492 8.89205769,6.04895508 C8.89205769,4.42954102 7.59467308,3.11188477 6.00017308,3.11188477 Z M6.00017308,7.93705078 C4.97509615,7.93705078 4.14109615,7.09001953 4.14109615,6.04892578 C4.14109615,5.00783203 4.97509615,4.16080078 6.00017308,4.16080078 C7.02525,4.16080078 7.85925,5.00783203 7.85925,6.04892578 C7.85925,7.09001953 7.02525,7.93705078 6.00017308,7.93705078 Z"></path>
                            </g>
                        </g>
                    </g>
                </g>
            </g>
        </g>
    </g>
</svg>