<?xml version="1.0" encoding="UTF-8"?>
<svg width="59px" height="52px" viewBox="0 0 59 52" version="1.1" xmlns="http://www.w3.org/2000/svg" xmlns:xlink="http://www.w3.org/1999/xlink">
    <title>SUBIR Copy</title>
    <defs>
        <filter id="filter-1">
            <feColorMatrix in="SourceGraphic" type="matrix" values="0 0 0 0 0.560784 0 0 0 0 0.560784 0 0 0 0 0.560784 0 0 0 1.000000 0"></feColorMatrix>
        </filter>
    </defs>
    <g id="Page-1" stroke="none" stroke-width="1" fill="none" fill-rule="evenodd">
        <g id="SUBIR-Copy" filter="url(#filter-1)">
            <g>
                <circle id="Oval" fill="#000000" fill-rule="nonzero" cx="22" cy="17" r="4"></circle>
                <path d="M55.509542,31.7155172 C53.5954198,29.9224138 51.1746183,28.7456897 48.528626,28.4094828 L48.528626,7.90086207 C48.528626,5.71551724 47.6278626,3.75431034 46.2204198,2.29741379 C44.7566794,0.840517241 42.7862595,0 40.5906489,0 L7.9379771,0 C5.74236641,0 3.77194656,0.896551724 2.30820611,2.29741379 C0.844465649,3.75431034 0,5.71551724 0,7.90086207 L0,33.7327586 L0,36.1422414 L0,41.3534483 C0,43.5387931 0.900763359,45.5 2.30820611,46.9568966 C3.77194656,48.4137931 5.74236641,49.2543103 7.9379771,49.2543103 L39.5209924,49.2543103 C41.6040076,50.9353448 44.1937023,52 47.0648855,52 C50.3864504,52 53.370229,50.6551724 55.509542,48.5258621 C57.648855,46.3965517 59,43.4267241 59,40.1206897 C59,36.8146552 57.648855,33.8448276 55.509542,31.7155172 Z M2.98377863,7.90086207 C2.98377863,6.55603448 3.54675573,5.32327586 4.44751908,4.48275862 C5.34828244,3.5862069 6.58683206,3.02586207 7.9379771,3.02586207 L40.5906489,3.02586207 C41.9417939,3.02586207 43.1803435,3.5862069 44.0811069,4.48275862 C44.9818702,5.37931034 45.5448473,6.61206897 45.5448473,7.95689655 L45.5448473,25.4396552 L37.2127863,17.1465517 C36.6498092,16.5862069 35.6927481,16.5301724 35.0734733,17.1465517 L22.519084,29.6982759 L14.0181298,21.1810345 C13.4551527,20.6206897 12.4980916,20.5646552 11.8788168,21.1810345 L2.98377863,30.1465517 L2.98377863,7.90086207 Z M7.88167939,46.3965517 L7.88167939,46.2844828 C6.53053435,46.2844828 5.29198473,45.7241379 4.39122137,44.8275862 C3.54675573,43.9310345 2.98377863,42.6982759 2.98377863,41.3534483 L2.98377863,36.1422414 L2.98377863,34.4051724 L12.9484733,24.4310345 L21.4494275,32.8922414 C22.0124046,33.4525862 22.9694656,33.4525862 23.5887405,32.8922414 L36.1431298,20.3405172 L44.3625954,28.5775862 C44.1937023,28.6336207 44.0248092,28.6896552 43.855916,28.7456897 C43.6307252,28.8017241 43.4055344,28.8577586 43.1240458,28.9698276 C42.898855,29.0258621 42.6736641,29.137931 42.4484733,29.1939655 C42.2795802,29.25 42.1669847,29.3060345 41.9980916,29.4181034 C41.7729008,29.5301724 41.6040076,29.5862069 41.4351145,29.6982759 C41.153626,29.8663793 40.8721374,30.0344828 40.5906489,30.2025862 C40.4217557,30.3146552 40.3091603,30.3706897 40.1402672,30.4827586 C40.0276718,30.5387931 39.971374,30.5948276 39.8587786,30.6508621 C39.3520992,30.987069 38.9017176,31.3793103 38.5076336,31.8275862 C36.3683206,33.9568966 35.0171756,36.9267241 35.0171756,40.2327586 C35.0171756,41.0732759 35.129771,41.8577586 35.2986641,42.6982759 C35.3549618,42.9224138 35.4112595,43.0905172 35.4675573,43.3146552 C35.6364504,43.875 35.8053435,44.4353448 36.0305344,44.9956897 L36.0305344,45.0517241 C36.2557252,45.5 36.480916,46.0043103 36.7624046,46.3965517 L7.88167939,46.3965517 L7.88167939,46.3965517 Z M53.3139313,46.3965517 C51.6812977,48.0215517 49.485687,48.9741379 47.0085878,48.9741379 C44.644084,48.9741379 42.4484733,48.0215517 40.8721374,46.5086207 C40.6469466,46.2844828 40.4217557,46.0043103 40.1965649,45.7801724 C40.0276718,45.612069 39.8587786,45.387931 39.6898855,45.2198276 C39.4646947,44.9396552 39.2958015,44.6034483 39.1269084,44.2672414 C39.014313,44.0431034 38.9017176,43.875 38.7891221,43.6508621 C38.6765267,43.3706897 38.5639313,43.0344828 38.5076336,42.6982759 C38.4513359,42.4741379 38.3387405,42.1939655 38.2824427,41.9698276 C38.1698473,41.4094828 38.1135496,40.7931034 38.1135496,40.1767241 C38.1135496,37.7112069 39.1269084,35.5258621 40.7032443,33.9008621 C42.2795802,32.2758621 44.5314885,31.3232759 47.0085878,31.3232759 C49.485687,31.3232759 51.6812977,32.3318966 53.3139313,33.9008621 C54.9465649,35.5258621 55.903626,37.7112069 55.903626,40.1767241 C55.903626,42.5862069 54.8902672,44.7715517 53.3139313,46.3965517 Z" id="Shape" fill="#000000" fill-rule="nonzero"></path>
                <path d="M48.0734463,34.4541485 C47.960452,34.3406114 47.7909605,34.2270742 47.5649718,34.1135371 C47.3954802,34.0567686 47.2259887,34 47.0564972,34 C47,34 47,34 47,34 C46.9435028,34 46.9435028,34 46.9435028,34 C46.7740113,34 46.6045198,34.0567686 46.4350282,34.1135371 C46.2655367,34.1703057 46.0960452,34.2838428 45.9265537,34.4541485 L42.4237288,37.9737991 C41.8587571,38.5414847 41.8587571,39.5065502 42.4237288,40.1310044 C42.9887006,40.69869 43.9491525,40.69869 44.5706215,40.1310044 L45.4745763,39.2227074 L45.4745763,45.4672489 C45.4745763,46.3187773 46.1525424,47 47,47 C47.8474576,47 48.5254237,46.3187773 48.5254237,45.4672489 L48.5254237,39.2227074 L49.4293785,40.1310044 C49.9943503,40.69869 50.9548023,40.69869 51.5762712,40.1310044 C52.1412429,39.5633188 52.1412429,38.5982533 51.5762712,37.9737991 L48.0734463,34.4541485 Z" id="Path" fill="#000000" fill-rule="nonzero"></path>
            </g>
        </g>
    </g>
</svg>