<?xml version="1.0" encoding="UTF-8"?>
<svg width="14px" height="15px" viewBox="0 0 14 15" version="1.1" xmlns="http://www.w3.org/2000/svg" xmlns:xlink="http://www.w3.org/1999/xlink">
    <title>phone (2)</title>
    <defs>
        <filter id="filter-1">
            <feColorMatrix in="SourceGraphic" type="matrix" values="0 0 0 0 0.223529 0 0 0 0 0.188235 0 0 0 0 0.423529 0 0 0 1.000000 0"></feColorMatrix>
        </filter>
        <filter id="filter-2">
            <feColorMatrix in="SourceGraphic" type="matrix" values="0 0 0 0 0.000000 0 0 0 0 0.572549 0 0 0 0 0.741176 0 0 0 1.000000 0"></feColorMatrix>
        </filter>
    </defs>
    <g id="Page-1" stroke="none" stroke-width="1" fill="none" fill-rule="evenodd">
        <g id="DASHBOARD" transform="translate(-347.000000, -310.000000)">
            <g id="Group-9" transform="translate(-2119.000000, 186.000000)">
                <g id="Group-3" transform="translate(2466.000000, 25.000000)">
                    <g id="Group" transform="translate(0.000000, 99.000000)" filter="url(#filter-1)">
                        <g id="phone-(2)" filter="url(#filter-2)">
                            <g fill="#000000" fill-rule="nonzero" id="Shape">
                                <path d="M13.463543,2.90119433 C12.9263477,2.08035425 11.9856133,1.33946356 10.8145898,0.81507085 C9.64988281,0.293532389 8.29757031,0.00513157895 7.00669922,0.00303347273 C5.71571875,-0.000516194332 4.36173828,0.284908907 3.19536328,0.802408907 C2.02231641,1.32288462 1.0793125,2.06055668 0.540175781,2.87945344 C0.0223398438,3.66598178 -0.126902344,4.5137247 0.108554688,5.33104251 C0.261296875,5.86126518 0.706863281,6.21801619 1.2175625,6.21883603 L2.96622266,6.22065789 C2.96679688,6.22065789 2.96737109,6.22065789 2.96797266,6.22065789 C3.31666016,6.22062753 3.64426563,6.0511336 3.86689844,5.75541498 C4.08717969,5.46285425 4.17842578,5.08050607 4.11725781,4.70635628 C4.11548047,4.69539474 4.11329297,4.68446356 4.11080469,4.67362348 L4.01879297,4.27639676 C4.52831641,4.00642713 5.68276953,3.48482794 7.0013125,3.49311741 C8.31889844,3.50061741 9.47255859,4.02191296 9.98271094,4.29200405 L9.88922266,4.68698381 C9.88657031,4.69815789 9.88432813,4.70942308 9.88241406,4.72074899 C9.82031641,5.09468623 9.91055078,5.47730769 10.1300664,5.7705668 C10.3523164,6.06753036 10.680168,6.23811741 11.0297578,6.23869433 L12.778418,6.24051619 C12.7789922,6.24051619 12.7795938,6.24051619 12.780168,6.24051619 C13.2898828,6.24051619 13.7355859,5.88537449 13.8895039,5.3562753 C14.1271484,4.53913968 13.979875,3.69018219 13.463543,2.90119433 Z M13.094375,5.07103239 C13.0529492,5.21338057 12.9238047,5.31267206 12.7798672,5.31267206 C12.7797305,5.31267206 12.7795391,5.31267206 12.779375,5.31267206 L11.0307148,5.3108502 C10.9299805,5.31069838 10.8358906,5.26208502 10.7725625,5.17745951 C10.7381367,5.13145749 10.6844063,5.03577935 10.7019883,4.90272267 L10.8759492,4.16781377 C10.9236094,3.96640688 10.8446133,3.75446356 10.6827109,3.64934211 C10.6152539,3.60555668 9.00735938,2.57662955 7.00557813,2.56518219 C6.99444922,2.56512146 6.98364844,2.56509109 6.97254688,2.56509109 C4.98364453,2.56509109 3.38720703,3.58952429 3.31985938,3.63337045 C3.15899609,3.73812753 3.08013672,3.94855263 3.12659375,4.14913968 L3.29710938,4.88523279 C3.31452734,5.01856275 3.26046875,5.11424089 3.22587891,5.16021255 C3.16246875,5.24444332 3.06846094,5.29272267 2.96772656,5.29272267 C2.9675625,5.29272267 2.96739844,5.29272267 2.96723438,5.29272267 L1.21854688,5.29090081 C1.07463672,5.29065789 0.9454375,5.19088057 0.904367188,5.04822874 C0.751460938,4.51742915 0.855859375,3.9719332 1.21466406,3.42695344 C2.16778516,1.97930162 4.59591016,0.930789474 6.99245313,0.930789474 C6.99671875,0.930789474 7.00128516,0.930789474 7.00555078,0.930789474 C9.40447266,0.934615385 11.8362344,1.99266194 12.7877148,3.44656883 C13.1456172,3.99364372 13.2488398,4.54017206 13.094375,5.07103239 Z"></path>
                                <path d="M10.9537695,8.22288462 L9.64971875,6.70238866 C9.57083203,6.61044534 9.46153906,6.55843117 9.34721484,6.55843117 L8.50448047,6.55843117 L8.50448047,5.92615385 C8.50448047,5.66993927 8.31744922,5.46224696 8.08672266,5.46224696 C7.85602344,5.46224696 7.66896484,5.66993927 7.66896484,5.92615385 L7.66896484,6.55843117 L6.33125391,6.55843117 L6.33125391,5.92615385 C6.33125391,5.66993927 6.14422266,5.46224696 5.91349609,5.46224696 C5.68276953,5.46224696 5.49573828,5.66993927 5.49573828,5.92615385 L5.49573828,6.55843117 L4.65303125,6.55843117 C4.53870703,6.55843117 4.42935937,6.61047571 4.35052734,6.70238866 L3.04650391,8.22288462 C2.02406641,9.41505061 1.46097656,10.9782692 1.46097656,12.6245648 L1.46097656,14.5330567 C1.46097656,14.7892713 1.64800781,14.9969636 1.87873438,14.9969636 L12.1214844,14.9969636 C12.3522109,14.9969636 12.5392422,14.7892713 12.5392422,14.5330567 L12.5392422,12.6245648 C12.5392422,10.9782389 11.976207,9.41505061 10.9537695,8.22288462 Z M2.29649219,14.0691498 L2.29649219,12.6245648 C2.29649219,11.2175709 2.77771484,9.88162955 3.65156641,8.86272267 L4.83210547,7.48618421 L9.16816797,7.48618421 L10.348707,8.86272267 C11.2225039,9.88156883 11.7037266,11.2175709 11.7037266,12.6245648 L11.7037266,14.0691498 L2.29649219,14.0691498 Z"></path>
                                <path d="M7.00013672,8.44539474 C5.79455078,8.44539474 4.81375781,9.53456478 4.81375781,10.8732996 C4.81375781,12.2120648 5.79457813,13.3012348 7.00013672,13.3012348 C8.20569531,13.3012348 9.18651563,12.2120648 9.18651563,10.8732996 C9.18651563,9.53453441 8.20572266,8.44539474 7.00013672,8.44539474 Z M7.00013672,12.3733907 C6.25523828,12.3733907 5.64927344,11.7004555 5.64927344,10.8732692 C5.64927344,10.0461134 6.25526562,9.37317814 7.00013672,9.37317814 C7.74500781,9.37317814 8.351,10.0461134 8.351,10.8732692 C8.351,11.7004555 7.74500781,12.3733907 7.00013672,12.3733907 Z"></path>
                            </g>
                        </g>
                    </g>
                </g>
            </g>
        </g>
    </g>
</svg>