<?xml version="1.0" encoding="UTF-8"?>
<svg width="10px" height="15px" viewBox="0 0 10 15" version="1.1" xmlns="http://www.w3.org/2000/svg" xmlns:xlink="http://www.w3.org/1999/xlink">
    <title>location (1)</title>
    <defs>
        <filter id="filter-1">
            <feColorMatrix in="SourceGraphic" type="matrix" values="0 0 0 0 0.223529 0 0 0 0 0.188235 0 0 0 0 0.423529 0 0 0 1.000000 0"></feColorMatrix>
        </filter>
        <filter id="filter-2">
            <feColorMatrix in="SourceGraphic" type="matrix" values="0 0 0 0 0.000000 0 0 0 0 0.572549 0 0 0 0 0.741176 0 0 0 1.000000 0"></feColorMatrix>
        </filter>
    </defs>
    <g id="Page-1" stroke="none" stroke-width="1" fill="none" fill-rule="evenodd">
        <g id="DASHBOARD" transform="translate(-349.000000, -398.000000)">
            <g id="Group-9" transform="translate(-2119.000000, 186.000000)">
                <g id="Group-3" transform="translate(2466.000000, 25.000000)">
                    <g id="Group" transform="translate(0.000000, 99.000000)" filter="url(#filter-1)">
                        <g transform="translate(2.000000, 88.000000)" id="location-(1)" filter="url(#filter-2)">
                            <g fill="#000000" fill-rule="nonzero">
                                <path d="M7.97939394,4.46833008 C7.72821212,4.30643555 5.50348485,2.8725293 5.25212121,2.71051758 C5.09942424,2.61213867 4.90054545,2.61213867 4.74784848,2.71051758 C4.49660606,2.8724707 2.27169697,4.30649414 2.02057576,4.46833008 C1.81166667,4.60297852 1.75524242,4.87582031 1.89451515,5.07773437 C2.03378788,5.27970703 2.31606061,5.33425781 2.52484848,5.19963867 L2.72727273,5.06917969 L2.72727273,7.5 C2.72727273,7.74269531 2.93078788,7.93945312 3.18181818,7.93945312 L6.81818182,7.93945312 C7.06921212,7.93945312 7.27272727,7.74269531 7.27272727,7.5 L7.27272727,5.06917969 L7.47515152,5.19963867 C7.68369697,5.33399414 7.966,5.2800293 8.10548485,5.07773438 C8.24472727,4.87582031 8.18830303,4.60297852 7.97939394,4.46833008 Z M6.36363636,7.06054688 L3.63636364,7.06054688 L3.63636364,4.48324219 L5,3.60433594 L6.36363636,4.48324219 L6.36363636,7.06054688 Z" id="Shape"></path>
                                <path d="M5,0 C2.243,0 0,2.16852539 0,4.83398438 C0,7.62662109 2.76533333,11.2389551 4.67645455,13.1114062 C4.76187879,13.1950781 4.87839394,13.2421875 5,13.2421875 C5.12160606,13.2421875 5.23812121,13.1950781 5.32354545,13.1114062 C7.26242424,11.2117676 10,7.6125 10,4.83398438 C10,2.16852539 7.757,0 5,0 Z M4.99987879,12.1604004 C3.98090909,11.0812793 0.909090909,7.59826172 0.909090909,4.83398438 C0.909090909,2.6531543 2.74427273,0.87890625 5,0.87890625 C7.25572727,0.87890625 9.09090909,2.6531543 9.09090909,4.83398438 C9.09090909,7.59515625 6.01854545,11.080752 4.99987879,12.1604004 Z" id="Shape"></path>
                                <path d="M2.27272727,14.1210938 C2.02169697,14.1210938 1.81818182,14.3178516 1.81818182,14.5605469 C1.81818182,14.8032422 2.02169697,15 2.27272727,15 L7.72727273,15 C7.97830303,15 8.18181818,14.8032422 8.18181818,14.5605469 C8.18181818,14.3178516 7.97830303,14.1210938 7.72727273,14.1210938 L2.27272727,14.1210938 Z" id="Path"></path>
                            </g>
                        </g>
                    </g>
                </g>
            </g>
        </g>
    </g>
</svg>